mtllib materials.mtl
v -0.25 0.05820692 0
v -0.125 0.0582068 0.2165064
v -0.125 0 0.2165063
v -0.25 0 0
v 0.125 0.0582068 0.2165065
v 0.125 0 0.2165063
v 0.2500001 0.0582068 5.960464E-08
v 0.25 0 0
v 0.125 0.0582068 -0.2165064
v 0.1249999 0 -0.2165064
v -0.1250001 0.05820692 -0.2165064
v -0.125 0 -0.2165063
v 0.111375 0.06820679 -0.1929073
v -0.1113751 0.06820691 -0.1929073
v -0.1125001 -0.00999999 0.1948557
v -0.2250001 -0.00999999 0
v 0.2227501 0.06820679 5.960464E-08
v 0.111375 0.06820679 0.1929073
v -0.1113751 0.06820679 0.1929073
v -0.2227501 0.06820691 0
v 0.1113751 0.0582068 -0.1929073
v -0.1113751 0.05820692 -0.1929073
v 0.2227502 0.0582068 5.960464E-08
v 0.1113751 0.0582068 0.1929074
v -0.1113751 0.0582068 0.1929073
v -0.2227502 0.05820692 0
v 0.1125 -0.00999999 0.1948557
v 0.225 -0.00999999 0
v 0.1125 -0.00999999 -0.1948557
v -0.1125 -0.00999999 -0.1948557
v -0.1125001 0 0.1948558
v -0.2250001 0 0
v 0.1125001 0 0.1948558
v 0.2250001 0 0
v 0.1125 0 -0.1948558
v -0.1125 0 -0.1948558
vn -0.8660254 -8.936269E-07 0.4999999
vn -1.192093E-07 -2.333727E-06 1
vn 0.8660254 -1.644208E-06 0.5000001
vn 0.8660254 -1.359241E-06 -0.4999999
vn -2.980278E-08 -1.676586E-06 -1
vn -0.8660254 -1.328022E-06 -0.4999999
vn 4.732178E-07 0.920747 -0.3901602
vn -0.3631367 -0.9078413 0.209657
vn 0.3378889 0.9207469 -0.1950802
vn 0.3378891 0.9207468 0.1950804
vn -8.42376E-08 0.9207467 0.390161
vn -0.3378891 0.9207467 0.1950808
vn -0.3378891 0.9207469 -0.1950802
vn 1.458014E-08 -5.999514E-06 1
vn -0.8660254 -4.702134E-06 0.5
vn -0.8660254 -4.453532E-06 -0.5000001
vn 2.530019E-07 -4.558977E-06 -1
vn 0.8660255 -5.517943E-06 -0.4999998
vn 0.8660254 -5.383909E-06 0.4999999
vn 2.656279E-07 1 1.555343E-07
vn 2.814236E-09 -0.9078415 0.4193135
vn 0.3631364 -0.9078413 0.2096569
vn 0.3631376 -0.9078407 -0.2096577
vn -2.852775E-08 -0.9078405 -0.4193157
vn -0.3631375 -0.9078408 -0.2096577
vn 0.8660254 4.908159E-06 -0.4999999
vn 1.986826E-08 4.63558E-06 -1
vn -0.8660254 5.544164E-06 -0.5
vn -0.8660253 4.64814E-06 0.5000002
vn 1.324547E-08 3.530961E-06 1
vn 0.8660254 5.418034E-06 0.5
vn -4.58774E-15 -1 6.632362E-15
vt 0.02782669 0.1419537
vt 0.004468049 0.150863
vt 0.002393746 0.1454244
vt 0.02575237 0.1365152
vt 0.146846 0.02506039
vt 0.1356657 0.04742109
vt 0.1304595 0.044818
vt 0.1416399 0.02245731
vt 0.1635014 0.006572652
vt 0.1503614 0.02784094
vt 0.1454096 0.02478158
vt 0.1585496 0.003513308
vt -0.004467792 0.1508628
vt -0.02782645 0.1419536
vt -0.02575214 0.1365151
vt -0.002393496 0.1454243
vt -0.1356654 0.04742112
vt -0.1468458 0.02506044
vt -0.1416396 0.02245735
vt -0.1304593 0.04481802
vt -0.1503614 0.02784068
vt -0.1635014 0.006572375
vt -0.1585496 0.003513023
vt -0.1454096 0.02478132
vt -0.08492224 -0.05500111
vt -0.08823667 -0.03022179
vt -0.09059645 -0.03191206
vt -0.0876433 -0.05399044
vt 0.05597193 -0.1184378
vt 0.08017822 -0.1121884
vt 0.07837176 -0.1101918
vt 0.05658609 -0.1158163
vt -0.04512574 -0.07955904
vt -0.06938658 -0.07352476
vt -0.06868301 -0.07634088
vt -0.0470666 -0.08171744
vt 0.002085414 -0.06405551
vt -0.009811639 -0.08604325
vt -0.00690903 -0.08606462
vt 0.003691247 -0.06647354
vt -0.009330893 -0.02549928
vt 0.002271184 -0.04764408
vt 0.003909196 -0.04524772
vt -0.006428258 -0.0255167
vt -0.05164949 -0.008445008
vt -0.02698237 -0.0125112
vt -0.02790985 -0.009760681
vt -0.04988826 -0.006137701
vt -0.0847529 -0.02823204
vt -0.06687389 -0.01075803
vt -0.06963976 -0.009877373
vt -0.08556996 -0.02544673
vt 0.1471312 0.02672612
vt 0.1371696 0.04664951
vt 0.1362751 0.04620231
vt 0.1462368 0.02627891
vt 0.02691047 0.1433736
vt 0.006097933 0.1513118
vt 0.005741559 0.1503775
vt 0.0265541 0.1424393
vt -0.1519282 0.02720678
vt -0.1636359 0.008256689
vt -0.1627852 0.007731088
vt -0.1510775 0.02668118
vt -0.1371689 0.04664968
vt -0.1471306 0.02672632
vt -0.1462362 0.0262791
vt -0.1362744 0.04620247
vt -0.006096575 0.1513113
vt -0.02690917 0.1433733
vt -0.02655281 0.1424389
vt -0.005740207 0.150377
vt 0.1636359 0.008257721
vt 0.1519281 0.02720774
vt 0.1510773 0.02668213
vt 0.1627852 0.007732115
vt -0.02479626 -0.05334179
vt -0.03228816 -0.03236448
vt -0.05420101 -0.028364
vt -0.06862195 -0.04534084
vt -0.06113005 -0.06631815
vt -0.0392172 -0.07031862
vt 0.1262062 -0.0579995
vt 0.1290519 -0.03316198
vt 0.1265403 -0.03413239
vt 0.1239792 -0.05648617
vt 0.1135856 0.001663843
vt 0.09564673 0.0190764
vt 0.09488262 0.01649452
vt 0.1110276 0.0008232128
vt 0.04481682 0.03302845
vt 0.0201491 0.02896599
vt 0.02177002 0.02681596
vt 0.04397097 0.03047218
vt -0.02799533 -0.005749431
vt -0.03976953 -0.02780318
vt -0.03707703 -0.02782368
vt -0.02648025 -0.007975302
vt -0.04034477 -0.08284061
vt -0.02894953 -0.1050925
vt -0.02739659 -0.1028929
vt -0.03765232 -0.08286616
vt -0.02422855 0.1360265
vt -0.003205802 0.1440449
vt -0.00356217 0.1449793
vt -0.02458492 0.1369609
vt -0.1401866 0.02312811
vt -0.1301243 0.04325274
vt -0.1310187 0.04369996
vt -0.141081 0.02357532
vt -0.1570419 0.004051547
vt -0.1452158 0.02319297
vt -0.1460666 0.02371858
vt -0.1578926 0.004577147
vt 0.003204764 0.1440444
vt 0.02422756 0.1360262
vt 0.02458393 0.1369605
vt 0.003561127 0.1449787
vt 0.1301238 0.04325281
vt 0.1401861 0.02312821
vt 0.1410805 0.02357542
vt 0.1310182 0.04370002
vt 0.145216 0.02319197
vt 0.1570419 0.004050466
vt 0.1578926 0.004576061
vt 0.1460667 0.02371757
vt 0.03914157 -0.07053048
vt 0.06127574 -0.06648959
vt 0.06884332 -0.04530039
vt 0.05427672 -0.02815207
vt 0.03214254 -0.03219297
vt 0.02457497 -0.05338217
o group1126813616
g mesh1126813616
usemtl mat21
f 4/4/1 3/3/1 2/2/1 1/1/1
f 3/8/2 6/7/2 5/6/2 2/5/2
f 6/12/3 8/11/3 7/10/3 5/9/3
f 8/16/4 10/15/4 9/14/4 7/13/4
f 10/20/5 12/19/5 11/18/5 9/17/5
f 12/24/6 4/23/6 1/22/6 11/21/6
f 14/28/7 13/27/7 9/26/7 11/25/7
f 16/32/8 15/31/8 3/30/8 4/29/8
f 13/36/9 17/35/9 7/34/9 9/33/9
f 17/40/10 18/39/10 5/38/10 7/37/10
f 18/44/11 19/43/11 2/42/11 5/41/11
f 19/48/12 20/47/12 1/46/12 2/45/12
f 20/52/13 14/51/13 11/50/13 1/49/13
f 22/56/14 21/55/14 13/54/14 14/53/14
f 21/60/15 23/59/15 17/58/15 13/57/15
f 23/64/16 24/63/16 18/62/16 17/61/16
f 24/68/17 25/67/17 19/66/17 18/65/17
f 25/72/18 26/71/18 20/70/18 19/69/18
f 26/76/19 22/75/19 14/74/19 20/73/19
f 26/82/20 25/81/20 24/80/20 23/79/20 21/78/20 22/77/20
f 15/86/21 27/85/21 6/84/21 3/83/21
f 27/90/22 28/89/22 8/88/22 6/87/22
f 28/94/23 29/93/23 10/92/23 8/91/23
f 29/98/24 30/97/24 12/96/24 10/95/24
f 30/102/25 16/101/25 4/100/25 12/99/25
f 32/106/26 31/105/26 15/104/26 16/103/26
f 31/110/27 33/109/27 27/108/27 15/107/27
f 33/114/28 34/113/28 28/112/28 27/111/28
f 34/118/29 35/117/29 29/116/29 28/115/29
f 35/122/30 36/121/30 30/120/30 29/119/30
f 36/126/31 32/125/31 16/124/31 30/123/31
f 36/132/32 35/131/32 34/130/32 33/129/32 31/128/32 32/127/32
