mtllib materials.mtl
v -0.2529403 0.02315855 -0.001220405
v -0.1279403 0.02315843 0.215286
v -0.1279403 -0.03504837 0.2152859
v -0.2529403 -0.03504837 -0.001220405
v 0.1220597 0.02315843 0.2152861
v 0.1220597 -0.03504837 0.2152859
v 0.2470598 0.02315843 -0.001220345
v 0.2470597 -0.03504837 -0.001220405
v 0.1220597 0.02315843 -0.2177268
v 0.1220596 -0.03504837 -0.2177268
v -0.1279404 0.02315855 -0.2177268
v -0.1279403 -0.03504837 -0.2177267
v 0.1084347 0.03315842 -0.1941277
v -0.1143154 0.03315854 -0.1941277
v -0.1154404 -0.04504836 0.1936353
v -0.2279404 -0.04504836 -0.001220405
v 0.2198098 0.03315842 -0.001220345
v 0.1084347 0.03315842 0.1916869
v -0.1143154 0.03315842 0.1916869
v -0.2256904 0.03315854 -0.001220405
v 0.1084348 0.02315843 -0.1941277
v -0.1143154 0.02315855 -0.1941277
v 0.2198099 0.02315843 -0.001220345
v 0.1084348 0.02315843 0.191687
v -0.1143154 0.02315843 0.1916869
v -0.2256905 0.02315855 -0.001220405
v 0.1095597 -0.04504836 0.1936353
v 0.2220597 -0.04504836 -0.001220405
v 0.1095597 -0.04504836 -0.1960762
v -0.1154403 -0.04504836 -0.1960762
v -0.1154404 -0.03504837 0.1936354
v -0.2279404 -0.03504837 -0.001220405
v 0.1095598 -0.03504837 0.1936354
v 0.2220598 -0.03504837 -0.001220405
v 0.1095597 -0.03504837 -0.1960762
v -0.1154403 -0.03504837 -0.1960762
v -0.1929851 0.0384562 0.0009376407
v -0.1773814 0.03837895 0.03190875
v -0.1769549 -0.01161814 0.031569
v -0.1925587 -0.01154077 0.0005978942
v -0.1354175 0.03858495 0.05425602
v -0.1349911 -0.01141202 0.05391628
v -0.07833782 0.03901923 0.06199151
v -0.07791138 -0.01097775 0.06165183
v -0.02143666 0.03956532 0.05304259
v -0.02101025 -0.01043165 0.05270284
v 0.02003926 0.04007697 0.02980697
v 0.0204657 -0.009920001 0.02946728
v 0.02497655 0.04041708 -0.001489282
v 0.02540299 -0.009579897 -0.001828969
v 0.01937276 0.04049444 -0.03246033
v 0.0197992 -0.009502649 -0.03280008
v -0.02259108 0.04028833 -0.0548076
v -0.02216464 -0.009708643 -0.05514735
v -0.07967079 0.03985405 -0.06254315
v -0.07924435 -0.01014292 -0.06288284
v -0.1365719 0.03930795 -0.05359417
v -0.1361455 -0.01068902 -0.05393392
v -0.1780479 0.03879631 -0.03035861
v -0.1776215 -0.01120067 -0.0306983
v 0.1080185 0.002313256 0.04993147
v 0.08208078 0.002276301 0.05010456
v 0.0820211 0.04073477 0.04938865
v 0.1079589 0.04077172 0.04921556
v 0.1073793 0.0005222559 -0.04622948
v 0.1073197 0.03898072 -0.04694539
v 0.08138189 0.03894365 -0.0467723
v 0.08144157 0.0004851818 -0.04605639
v 0.1309374 0.001898527 0.02573717
v 0.1384704 0.001461744 0.001645625
v 0.1306178 0.001002908 -0.02234328
v 0.04016918 0.0005694628 -0.03808904
v 0.04070613 0.002074003 0.04268885
v 0.04064643 0.04053247 0.04197288
v 0.04010952 0.03902793 -0.03880495
v 0.1305581 0.03946137 -0.02305919
v 0.1384107 0.03992021 0.0009297132
v 0.1308777 0.04035699 0.02502126
vn -0.8660254 -8.972663E-07 0.4999999
vn -1.192093E-07 -2.355943E-06 1
vn 0.8660254 -1.662785E-06 0.5000001
vn 0.8660254 -1.355601E-06 -0.4999999
vn -2.980279E-08 -1.65437E-06 -1
vn -0.8660254 -1.309446E-06 -0.4999999
vn 4.811584E-07 0.920747 -0.3901602
vn -0.3631368 -0.9078413 0.209657
vn 0.3378889 0.9207469 -0.1950802
vn 0.3378891 0.9207467 0.1950804
vn -7.629708E-08 0.9207467 0.390161
vn -0.3378891 0.9207467 0.1950809
vn -0.337889 0.9207469 -0.1950802
vn 1.458009E-08 -6.02173E-06 1
vn -0.8660254 -4.705774E-06 0.5
vn -0.8660254 -4.434956E-06 -0.5000001
vn 2.530019E-07 -4.536761E-06 -1
vn 0.8660255 -5.514304E-06 -0.4999998
vn 0.8660254 -5.402485E-06 0.4999999
vn 2.742519E-07 1 1.777502E-07
vn -5.014996E-09 -0.9078415 0.4193135
vn 0.3631364 -0.9078414 0.2096569
vn 0.3631376 -0.9078407 -0.2096577
vn -3.635697E-08 -0.9078405 -0.4193157
vn -0.3631375 -0.9078408 -0.2096577
vn 0.8660254 4.911798E-06 -0.4999999
vn 1.98683E-08 4.657797E-06 -1
vn -0.8660254 5.562741E-06 -0.5
vn -0.8660253 4.644501E-06 0.5000002
vn 1.32455E-08 3.508745E-06 1
vn 0.8660254 5.399457E-06 0.5
vn -8.624011E-09 -1 -2.221589E-08
vn -0.8930192 -0.01067366 0.4498921
vn -0.4699788 -0.01000578 0.882621
vn -0.1342307 -0.007878013 0.9909188
vn 0.1554108 -0.005386636 0.9878352
vn 0.4887641 -0.001759143 0.8724142
vn 0.9877443 0.007365484 0.1559069
vn 0.9839811 0.009602213 -0.1780143
vn 0.4699787 0.01000582 -0.882621
vn 0.1342306 0.007878024 -0.9909188
vn -0.1554106 0.005386622 -0.9878353
vn -0.4887643 0.001759155 -0.8724141
vn -0.9024457 -0.004770055 -0.4307771
vn -0.008655205 0.9999394 0.006795783
vn 0.008655284 -0.9999394 -0.006795783
vn 0.006646188 0.01862209 0.9998045
vn -0.006646188 -0.01862201 -0.9998045
vn 0.001551595 -0.9998256 0.01861215
vn -0.001551585 0.9998256 -0.01861215
vn 0.7260324 0.01392526 0.6875196
vn -0.9999768 -0.001427763 0.006673508
vn -0.1764793 0.01804622 0.984139
vn -0.1895471 -0.01856882 -0.981696
vn 0.9503924 -0.004314789 -0.3110234
vn 0.9544429 0.0070345 0.298311
vn 0.7168279 -0.01186517 -0.6971493
vt 0.02782669 0.1419537
vt 0.004468049 0.150863
vt 0.002393746 0.1454244
vt 0.02575237 0.1365152
vt 0.146846 0.0250604
vt 0.1356657 0.04742109
vt 0.1304595 0.044818
vt 0.1416399 0.02245731
vt 0.1635014 0.006572652
vt 0.1503614 0.02784094
vt 0.1454096 0.02478158
vt 0.1585496 0.003513308
vt -0.004467792 0.1508628
vt -0.02782645 0.1419536
vt -0.02575214 0.1365151
vt -0.002393496 0.1454243
vt -0.1356654 0.04742112
vt -0.1468458 0.02506044
vt -0.1416396 0.02245735
vt -0.1304593 0.04481802
vt -0.1503614 0.02784068
vt -0.1635014 0.006572375
vt -0.1585496 0.003513023
vt -0.1454096 0.02478132
vt -0.08492224 -0.05500112
vt -0.08823667 -0.03022179
vt -0.09059645 -0.03191206
vt -0.08764329 -0.05399045
vt 0.05597193 -0.1184378
vt 0.08017822 -0.1121884
vt 0.07837175 -0.1101918
vt 0.05658608 -0.1158163
vt -0.04512574 -0.07955904
vt -0.06938657 -0.07352476
vt -0.06868301 -0.07634088
vt -0.0470666 -0.08171744
vt 0.002085414 -0.06405551
vt -0.009811639 -0.08604325
vt -0.00690903 -0.08606462
vt 0.003691247 -0.06647354
vt -0.009330888 -0.02549928
vt 0.002271188 -0.04764408
vt 0.0039092 -0.04524772
vt -0.006428253 -0.0255167
vt -0.05164949 -0.008445008
vt -0.02698237 -0.0125112
vt -0.02790985 -0.009760681
vt -0.04988826 -0.006137701
vt -0.08475289 -0.02823204
vt -0.06687389 -0.01075803
vt -0.06963976 -0.009877372
vt -0.08556996 -0.02544672
vt 0.1471312 0.02672612
vt 0.1371696 0.04664951
vt 0.1362751 0.04620231
vt 0.1462368 0.02627891
vt 0.02691047 0.1433736
vt 0.006097933 0.1513118
vt 0.005741559 0.1503775
vt 0.0265541 0.1424393
vt -0.1519282 0.02720678
vt -0.1636359 0.008256689
vt -0.1627852 0.007731088
vt -0.1510775 0.02668118
vt -0.1371689 0.04664967
vt -0.1471306 0.02672631
vt -0.1462362 0.0262791
vt -0.1362744 0.04620246
vt -0.006096575 0.1513113
vt -0.02690917 0.1433733
vt -0.02655281 0.1424389
vt -0.005740207 0.150377
vt 0.1636359 0.008257721
vt 0.1519281 0.02720774
vt 0.1510773 0.02668213
vt 0.1627852 0.007732115
vt -0.02479625 -0.05334179
vt -0.03228816 -0.03236448
vt -0.054201 -0.028364
vt -0.06862194 -0.04534084
vt -0.06113004 -0.06631815
vt -0.03921719 -0.07031862
vt 0.1262062 -0.0579995
vt 0.1290519 -0.03316198
vt 0.1265403 -0.03413239
vt 0.1239792 -0.05648617
vt 0.1135856 0.00166384
vt 0.09564673 0.0190764
vt 0.09488262 0.01649452
vt 0.1110276 0.00082321
vt 0.04481682 0.03302844
vt 0.02014909 0.02896598
vt 0.02177001 0.02681596
vt 0.04397096 0.03047217
vt -0.02799534 -0.005749431
vt -0.03976954 -0.02780318
vt -0.03707704 -0.02782368
vt -0.02648026 -0.007975301
vt -0.04034478 -0.08284059
vt -0.02894953 -0.1050925
vt -0.0273966 -0.1028929
vt -0.03765232 -0.08286615
vt -0.02422855 0.1360265
vt -0.0032058 0.1440449
vt -0.003562168 0.1449793
vt -0.02458492 0.1369609
vt -0.1401866 0.02312811
vt -0.1301243 0.04325274
vt -0.1310187 0.04369995
vt -0.141081 0.02357532
vt -0.1570419 0.004051555
vt -0.1452158 0.02319298
vt -0.1460666 0.02371858
vt -0.1578926 0.004577155
vt 0.003204764 0.1440444
vt 0.02422756 0.1360262
vt 0.02458393 0.1369605
vt 0.003561127 0.1449787
vt 0.1301238 0.04325281
vt 0.1401861 0.02312821
vt 0.1410805 0.02357542
vt 0.1310182 0.04370003
vt 0.145216 0.02319197
vt 0.1570419 0.004050465
vt 0.1578926 0.00457606
vt 0.1460667 0.02371757
vt 0.03914157 -0.07053048
vt 0.06127574 -0.06648959
vt 0.06884332 -0.04530039
vt 0.05427671 -0.02815207
vt 0.03214253 -0.03219297
vt 0.02457496 -0.05338217
vt 0.006667916 0.1481615
vt 0.003316125 0.1490517
vt 0.002032706 0.1442192
vt 0.0053845 0.1433291
vt 0.1264101 0.07183579
vt 0.123731 0.07576348
vt 0.1196004 0.07294603
vt 0.1222795 0.06901833
vt 0.144185 0.03661662
vt 0.1415415 0.04173451
vt 0.1370991 0.03943988
vt 0.1397427 0.03432199
vt 0.1511303 0.01881046
vt 0.1486947 0.02403049
vt 0.1441636 0.02191631
vt 0.1465993 0.01669628
vt 0.1563413 0.007424854
vt 0.1543377 0.01173641
vt 0.1498034 0.00962927
vt 0.151807 0.00531771
vt 0.1505341 0.05213466
vt 0.1483533 0.05443322
vt 0.1447354 0.05098202
vt 0.1469162 0.04868346
vt 0.09974341 0.1181249
vt 0.09677899 0.1191825
vt 0.09508624 0.1144777
vt 0.09805067 0.1134202
vt -0.1183287 0.08368367
vt -0.1210078 0.07975598
vt -0.1168772 0.07693852
vt -0.1141981 0.0808662
vt -0.1397257 0.04524973
vt -0.1423693 0.04013184
vt -0.1379269 0.03783721
vt -0.1352834 0.0429551
vt -0.1503676 0.02044513
vt -0.1528033 0.01522509
vt -0.1482723 0.01311092
vt -0.1458366 0.01833094
vt -0.158378 0.003042148
vt -0.1603817 -0.001269412
vt -0.1558474 -0.003376558
vt -0.1538437 0.0009350066
vt -0.1604843 0.0185508
vt -0.1623645 0.01563672
vt -0.1581631 0.01292595
vt -0.1562829 0.01584003
vt -0.03746891 -0.06340423
vt -0.0366832 -0.05871523
vt -0.03776328 -0.05305709
vt -0.04041976 -0.04794589
vt -0.04394083 -0.04475118
vt -0.04704515 -0.04527013
vt -0.049824 -0.04679243
vt -0.05060972 -0.05148143
vt -0.04952963 -0.05713957
vt -0.04687316 -0.06225077
vt -0.04335209 -0.06544548
vt -0.03990989 -0.06586768
vt 0.03990969 -0.06586826
vt 0.04335188 -0.06544606
vt 0.04687295 -0.06225135
vt 0.04952943 -0.05714016
vt 0.05060951 -0.05148201
vt 0.0498238 -0.04679301
vt 0.04704494 -0.04527072
vt 0.04394063 -0.04475177
vt 0.04041956 -0.04794648
vt 0.03776308 -0.05305767
vt 0.03668299 -0.05871582
vt 0.03746871 -0.06340482
vt 0.1333234 0.04484518
vt 0.1344898 0.0425284
vt 0.1379255 0.04425812
vt 0.1367591 0.0465749
vt -0.1333234 0.04484519
vt -0.1367591 0.04657491
vt -0.1379255 0.04425812
vt -0.1344898 0.0425284
vt 0.05813421 -0.04078722
vt 0.05660081 -0.03782804
vt 0.05457204 -0.03632554
vt 0.05204789 -0.03627972
vt 0.04902837 -0.03769059
vt 0.04819325 -0.04014631
vt 0.0475911 -0.0443064
vt 0.05524025 -0.04690766
vt 0.05729909 -0.04324294
vt -0.05813421 -0.04078722
vt -0.05729909 -0.04324294
vt -0.05524025 -0.04690766
vt -0.0475911 -0.0443064
vt -0.04819325 -0.04014631
vt -0.04902837 -0.03769059
vt -0.05204789 -0.03627972
vt -0.05457204 -0.03632554
vt -0.05660081 -0.03782804
vt 0.1524674 0.01039189
vt 0.1558564 0.01221128
vt 0.15428 0.01514776
vt 0.150891 0.01332838
vt -0.1337965 0.07766421
vt -0.1271013 0.08218655
vt -0.1292544 0.08537404
vt -0.1359495 0.08085171
vt 0.1268033 0.05834424
vt 0.1288197 0.05465603
vt 0.1321948 0.05650123
vt 0.1301783 0.06018946
vt -0.1431671 0.03251466
vt -0.1449911 0.02872756
vt -0.1415255 0.02705849
vt -0.1397016 0.03084559
vt 0.06062702 0.1408907
vt 0.05810429 0.1409868
vt 0.05795794 0.137143
vt 0.06048067 0.137047
vt 0.1541974 0.03637705
vt 0.1526192 0.03834754
vt 0.1496169 0.03594301
vt 0.1511951 0.03397252
vt -0.0712465 0.1281065
vt -0.0737385 0.1258934
vt -0.07118426 0.1230173
vt -0.06869227 0.1252305
o group982024643
g mesh982024643
usemtl mat5
f 40/136/33 39/135/33 38/134/33 37/133/33
f 39/140/34 42/139/34 41/138/34 38/137/34
f 42/144/35 44/143/35 43/142/35 41/141/35
f 44/148/36 46/147/36 45/146/36 43/145/36
f 46/152/37 48/151/37 47/150/37 45/149/37
f 48/156/38 50/155/38 49/154/38 47/153/38
f 50/160/39 52/159/39 51/158/39 49/157/39
f 52/164/40 54/163/40 53/162/40 51/161/40
f 54/168/41 56/167/41 55/166/41 53/165/41
f 56/172/42 58/171/42 57/170/42 55/169/42
f 58/176/43 60/175/43 59/174/43 57/173/43
f 60/180/44 40/179/44 37/178/44 59/177/44
f 37/192/45 38/191/45 41/190/45 43/189/45 45/188/45 47/187/45 49/186/45 51/185/45 53/184/45 55/183/45 57/182/45 59/181/45
f 60/204/46 58/203/46 56/202/46 54/201/46 52/200/46 50/199/46 48/198/46 46/197/46 44/196/46 42/195/46 39/194/46 40/193/46
o group132959278
g mesh132959278
usemtl mat5
f 64/208/47 63/207/47 62/206/47 61/205/47
f 68/212/48 67/211/48 66/210/48 65/209/48
f 62/221/49 73/220/49 72/219/49 68/218/49 65/217/49 71/216/49 70/215/49 69/214/49 61/213/49
f 78/230/50 77/229/50 76/228/50 66/227/50 67/226/50 75/225/50 74/224/50 63/223/50 64/222/50
f 69/234/51 78/233/51 64/232/51 61/231/51
f 74/238/52 75/237/52 72/236/52 73/235/52
f 63/242/53 74/241/53 73/240/53 62/239/53
f 68/246/54 72/245/54 75/244/54 67/243/54
f 70/250/55 71/249/55 76/248/55 77/247/55
f 69/254/56 70/253/56 77/252/56 78/251/56
f 71/258/57 65/257/57 66/256/57 76/255/57
o group1126813616
g mesh1126813616
usemtl mat9
f 4/4/1 3/3/1 2/2/1 1/1/1
f 3/8/2 6/7/2 5/6/2 2/5/2
f 6/12/3 8/11/3 7/10/3 5/9/3
f 8/16/4 10/15/4 9/14/4 7/13/4
f 10/20/5 12/19/5 11/18/5 9/17/5
f 12/24/6 4/23/6 1/22/6 11/21/6
f 14/28/7 13/27/7 9/26/7 11/25/7
f 16/32/8 15/31/8 3/30/8 4/29/8
f 13/36/9 17/35/9 7/34/9 9/33/9
f 17/40/10 18/39/10 5/38/10 7/37/10
f 18/44/11 19/43/11 2/42/11 5/41/11
f 19/48/12 20/47/12 1/46/12 2/45/12
f 20/52/13 14/51/13 11/50/13 1/49/13
f 22/56/14 21/55/14 13/54/14 14/53/14
f 21/60/15 23/59/15 17/58/15 13/57/15
f 23/64/16 24/63/16 18/62/16 17/61/16
f 24/68/17 25/67/17 19/66/17 18/65/17
f 25/72/18 26/71/18 20/70/18 19/69/18
f 26/76/19 22/75/19 14/74/19 20/73/19
f 26/82/20 25/81/20 24/80/20 23/79/20 21/78/20 22/77/20
f 15/86/21 27/85/21 6/84/21 3/83/21
f 27/90/22 28/89/22 8/88/22 6/87/22
f 28/94/23 29/93/23 10/92/23 8/91/23
f 29/98/24 30/97/24 12/96/24 10/95/24
f 30/102/25 16/101/25 4/100/25 12/99/25
f 32/106/26 31/105/26 15/104/26 16/103/26
f 31/110/27 33/109/27 27/108/27 15/107/27
f 33/114/28 34/113/28 28/112/28 27/111/28
f 34/118/29 35/117/29 29/116/29 28/115/29
f 35/122/30 36/121/30 30/120/30 29/119/30
f 36/126/31 32/125/31 16/124/31 30/123/31
f 36/132/32 35/131/32 34/130/32 33/129/32 31/128/32 32/127/32
